<?xml version="1.0" standalone="no"?>
<!DOCTYPE svg PUBLIC "-//W3C//DTD SVG 20010904//EN"
 "http://www.w3.org/TR/2001/REC-SVG-20010904/DTD/svg10.dtd">
<svg version="1.0" xmlns="http://www.w3.org/2000/svg"
 width="3508.000000pt" height="3508.000000pt" viewBox="0 0 3508.000000 3508.000000"
 preserveAspectRatio="xMidYMid meet">
<metadata>
Created by potrace 1.14, written by Peter Selinger 2001-2017
</metadata>
<g transform="translate(0.000000,3508.000000) scale(0.100000,-0.100000)"
fill="#000000" stroke="none">
<path d="M17305 34779 c-126 -165 -238 -310 -247 -322 -10 -12 -118 -152 -240
-312 -123 -159 -253 -328 -289 -375 -116 -151 -241 -313 -308 -400 -36 -47
-93 -121 -126 -164 -63 -81 -200 -259 -241 -311 -21 -28 -402 -523 -539 -700
-191 -249 -756 -982 -855 -1110 -64 -82 -221 -287 -350 -455 -129 -168 -237
-307 -240 -310 -3 -3 -17 -21 -30 -40 -14 -19 -29 -40 -34 -45 -9 -11 -33 5
-1264 829 -403 270 -741 496 -750 501 -52 31 -167 111 -170 118 -2 4 -8 7 -13
7 -6 0 -33 17 -62 38 -29 22 -56 41 -62 43 -5 2 -120 78 -255 169 -135 91
-249 167 -255 169 -5 2 -14 8 -20 13 -36 33 -1370 917 -1373 910 -1 -5 16 -49
39 -98 98 -212 122 -265 124 -274 1 -3 13 -30 27 -60 26 -57 114 -253 393
-875 7 -16 28 -61 45 -100 17 -38 38 -83 45 -100 8 -16 36 -79 63 -140 27 -60
100 -221 161 -357 61 -137 161 -359 222 -495 61 -137 123 -273 136 -303 14
-30 42 -93 63 -140 21 -47 48 -107 60 -135 12 -27 33 -72 45 -100 13 -27 41
-90 63 -140 22 -49 55 -121 73 -160 18 -38 33 -72 34 -75 5 -14 41 -97 230
-515 7 -16 29 -65 49 -108 20 -43 36 -80 36 -82 0 -2 20 -45 44 -97 24 -51 46
-102 50 -114 7 -24 -38 -140 -169 -429 -12 -27 -50 -115 -85 -195 -34 -80 -70
-163 -80 -185 -44 -98 -61 -138 -118 -270 -60 -141 -501 -1154 -526 -1210 -29
-64 -56 -125 -116 -265 -34 -80 -68 -159 -75 -176 -8 -16 -30 -68 -50 -114
-20 -46 -42 -98 -50 -114 -14 -31 -98 -223 -237 -546 -40 -91 -76 -170 -82
-176 -9 -10 -42 -16 -191 -38 -11 -2 -40 -6 -65 -10 -25 -4 -60 -9 -77 -11
-52 -8 -92 -14 -173 -26 -41 -7 -84 -13 -95 -15 -11 -1 -36 -5 -55 -8 -19 -3
-51 -8 -70 -11 -37 -5 -76 -10 -125 -19 -16 -2 -50 -7 -75 -11 -25 -4 -56 -8
-70 -10 -14 -3 -59 -9 -100 -15 -41 -7 -84 -13 -95 -15 -11 -1 -58 -8 -105
-15 -46 -6 -87 -13 -90 -15 -3 -1 -32 -6 -65 -9 -33 -4 -67 -9 -75 -11 -8 -2
-35 -6 -60 -9 -25 -3 -54 -8 -66 -10 -12 -2 -45 -8 -75 -11 -76 -11 -90 -13
-124 -18 -48 -8 -113 -19 -138 -22 -22 -2 -89 -12 -137 -20 -72 -12 -91 -15
-165 -25 -44 -7 -87 -13 -95 -15 -11 -1 -15 -14 -14 -46 1 -36 26 -235 49
-394 5 -36 22 -162 30 -225 4 -25 8 -56 10 -70 5 -31 24 -172 30 -225 3 -22 7
-53 9 -70 3 -16 10 -68 16 -115 6 -47 13 -96 15 -110 2 -14 9 -63 15 -110 6
-47 13 -96 15 -110 2 -14 6 -47 10 -75 3 -27 8 -57 10 -65 2 -8 6 -42 10 -75
3 -33 8 -71 10 -85 2 -14 9 -63 15 -110 6 -47 13 -96 15 -110 2 -14 6 -45 10
-70 3 -25 8 -63 11 -85 3 -22 7 -51 9 -65 2 -14 6 -43 10 -65 3 -22 8 -60 10
-85 2 -25 7 -63 10 -85 4 -22 8 -51 10 -65 2 -14 6 -45 10 -70 9 -60 12 -85
20 -145 11 -94 13 -110 19 -140 3 -16 7 -52 11 -80 3 -27 7 -59 9 -70 2 -11 7
-45 11 -75 7 -58 10 -81 19 -145 3 -22 8 -60 11 -85 5 -42 12 -91 20 -150 2
-14 9 -63 15 -110 6 -47 13 -96 15 -110 2 -14 7 -47 10 -75 3 -27 8 -61 10
-75 16 -92 15 -110 -4 -152 -11 -24 -71 -162 -134 -308 -187 -431 -457 -1051
-483 -1108 -13 -29 -24 -55 -24 -57 0 -2 -11 -28 -24 -57 -13 -29 -79 -179
-146 -333 -66 -154 -127 -293 -135 -310 -7 -16 -59 -136 -115 -265 -56 -129
-110 -253 -120 -275 -9 -22 -55 -125 -100 -230 -156 -360 -212 -490 -230 -530
-10 -23 -40 -90 -65 -150 -26 -60 -55 -129 -66 -152 -37 -84 -57 -130 -123
-283 -37 -85 -76 -173 -86 -195 -9 -22 -55 -125 -100 -230 -45 -104 -90 -208
-100 -230 -10 -22 -55 -125 -100 -230 -74 -173 -94 -217 -135 -310 -8 -16 -60
-136 -116 -265 -107 -248 -359 -827 -389 -895 -10 -22 -46 -105 -80 -185 -34
-80 -72 -167 -85 -195 -12 -27 -41 -94 -64 -148 l-42 -97 64 -68 c35 -37 97
-103 137 -147 41 -44 93 -100 116 -125 24 -25 59 -63 79 -85 21 -22 56 -60 79
-85 23 -25 75 -81 116 -125 40 -44 101 -109 134 -145 34 -36 111 -119 171
-185 61 -65 126 -135 145 -156 37 -39 188 -202 236 -254 15 -16 73 -79 130
-140 56 -60 114 -123 129 -140 16 -16 78 -84 139 -149 120 -129 117 -126 191
-207 28 -30 106 -115 175 -189 149 -159 163 -175 215 -231 22 -24 71 -78 110
-119 79 -84 275 -296 325 -350 18 -19 76 -82 130 -140 53 -58 109 -118 124
-135 39 -43 214 -231 259 -279 22 -23 76 -81 122 -131 45 -49 98 -106 116
-126 19 -20 77 -82 129 -139 52 -56 111 -120 130 -140 19 -21 82 -89 140 -151
58 -62 118 -127 134 -144 15 -16 74 -79 130 -140 99 -108 127 -138 352 -380
62 -66 126 -136 144 -155 17 -19 51 -55 74 -80 53 -57 150 -162 291 -315 61
-65 124 -133 140 -150 17 -18 73 -78 125 -135 52 -57 109 -118 125 -136 32
-34 215 -230 254 -273 46 -50 216 -234 246 -266 34 -36 89 -95 255 -274 124
-134 243 -262 275 -296 17 -19 213 -231 240 -261 9 -9 128 -138 292 -314 28
-30 66 -71 85 -91 30 -33 196 -212 273 -295 17 -17 71 -76 120 -129 50 -54
106 -115 125 -135 19 -21 55 -60 80 -86 103 -112 182 -197 298 -321 68 -73
132 -141 141 -152 14 -16 113 -124 241 -261 79 -85 220 -237 246 -265 15 -16
75 -81 133 -144 58 -63 121 -130 140 -150 18 -20 71 -76 116 -126 46 -49 101
-108 122 -131 59 -63 244 -263 297 -321 27 -29 67 -72 89 -96 23 -24 85 -91
137 -147 52 -57 104 -113 115 -125 11 -11 47 -50 80 -86 33 -35 111 -119 174
-187 62 -67 122 -132 133 -144 10 -13 47 -52 81 -88 52 -55 190 -203 303 -326
42 -45 223 -241 262 -283 19 -20 54 -58 80 -86 25 -27 73 -79 106 -115 69 -74
266 -286 311 -335 50 -54 246 -265 320 -345 39 -41 118 -127 177 -190 58 -63
119 -128 134 -145 14 -16 54 -59 88 -95 33 -36 108 -117 166 -179 58 -63 120
-130 139 -150 101 -108 227 -245 246 -267 19 -22 24 -24 36 -11 8 8 68 72 134
143 66 71 154 165 195 209 97 105 147 159 320 345 79 85 192 207 252 271 59
64 117 127 128 139 12 13 69 76 129 139 59 64 120 130 135 146 37 40 216 233
292 315 34 36 74 79 88 95 32 34 185 200 242 261 22 23 82 88 134 145 52 56
117 125 143 153 27 28 81 86 120 130 40 43 89 97 111 120 40 43 204 219 245
265 13 14 76 82 141 151 64 69 138 149 166 179 27 30 65 71 84 91 34 35 188
202 245 265 26 28 221 237 275 295 14 15 66 71 115 125 50 54 104 112 120 130
17 17 55 58 85 91 30 33 107 115 171 184 64 69 129 139 144 155 25 28 131 142
310 335 62 67 238 257 320 345 17 18 80 85 140 150 61 65 117 126 126 137 9
10 60 64 112 121 52 56 108 116 123 132 15 17 77 84 138 149 61 66 138 149
171 185 33 36 90 97 126 136 37 38 79 84 94 100 15 17 68 74 118 129 51 54
105 113 121 130 15 17 74 81 130 141 57 61 114 122 127 136 29 32 198 214 253
273 21 22 79 85 130 140 50 54 105 113 121 130 37 41 203 221 240 261 16 17
82 88 149 160 67 71 148 159 181 195 33 35 65 69 71 75 5 5 59 64 120 129 60
66 120 132 134 146 33 35 229 247 265 285 162 176 199 216 237 256 23 25 86
93 138 149 52 57 106 115 120 130 14 14 72 77 130 140 58 62 114 123 125 135
11 11 65 69 120 129 55 60 114 123 130 140 35 38 217 235 259 280 15 17 74 81
130 141 57 61 114 122 127 136 40 43 221 239 259 280 38 40 58 62 250 269 69
74 127 137 130 140 3 3 55 59 115 124 61 66 117 127 125 136 97 104 269 289
390 420 52 57 106 115 120 130 14 14 70 75 125 134 55 60 114 123 130 140 17
18 79 86 140 152 60 65 117 126 125 134 8 8 40 42 70 75 57 62 266 288 357
385 28 30 64 69 79 85 32 36 221 239 324 350 205 220 200 213 191 237 -9 22
-80 186 -135 313 -15 33 -31 69 -35 80 -5 11 -18 40 -29 65 -11 25 -39 90 -62
145 -24 55 -53 123 -65 150 -26 57 -269 615 -340 780 -26 61 -55 128 -65 150
-10 22 -64 146 -120 275 -160 367 -211 483 -226 514 -8 16 -14 33 -14 37 0 4
-13 36 -29 71 -30 64 -115 260 -236 538 -37 85 -82 189 -100 230 -18 41 -55
127 -83 190 -27 63 -67 153 -87 200 -58 134 -357 822 -465 1070 -132 305 -263
605 -288 660 -11 25 -50 115 -87 200 -37 85 -73 169 -81 185 -7 17 -52 120
-99 230 -48 110 -108 250 -135 310 -26 61 -94 216 -150 345 -56 129 -111 255
-121 279 -20 47 -20 45 6 224 2 17 7 55 10 82 4 28 8 61 10 75 7 46 26 185 30
215 10 85 18 142 21 159 2 10 6 44 9 75 4 31 8 63 10 71 3 8 7 38 10 65 6 59
13 110 20 145 2 14 7 48 10 75 8 57 9 68 30 225 9 63 17 129 20 145 2 17 11
84 20 150 8 66 17 131 20 145 2 14 7 48 10 75 3 28 8 64 10 80 3 17 7 46 9 65
9 67 37 275 41 300 4 32 18 130 20 150 2 19 15 116 20 150 2 14 6 45 10 70 3
25 10 77 16 115 17 122 19 139 25 190 3 28 9 75 14 105 5 30 12 76 15 102 3
26 9 78 15 115 5 38 12 91 15 118 4 28 8 61 10 75 2 14 7 48 11 75 3 28 8 58
9 67 2 9 7 48 10 85 4 37 9 71 11 75 2 3 7 33 10 66 6 67 5 67 -74 77 -26 4
-58 8 -72 11 -14 2 -45 7 -70 10 -25 3 -52 7 -60 9 -8 3 -38 7 -65 10 -28 3
-75 10 -105 15 -59 10 -131 21 -167 25 -22 3 -77 12 -138 21 -16 3 -41 7 -55
9 -14 2 -54 8 -90 14 -36 5 -87 13 -115 17 -27 3 -57 7 -65 9 -33 6 -97 15
-135 20 -22 2 -78 11 -125 19 -47 8 -107 17 -135 21 -27 3 -59 8 -70 10 -11 3
-38 7 -60 10 -22 3 -98 15 -170 25 -71 11 -148 22 -170 25 -22 2 -49 7 -60 9
-11 2 -42 7 -70 10 -27 4 -72 11 -100 16 -27 5 -89 14 -138 21 -48 7 -91 17
-96 23 -4 6 -41 88 -81 181 -40 94 -88 203 -106 243 -19 41 -34 76 -34 78 0 3
-11 30 -25 60 -14 30 -37 82 -51 117 -14 34 -34 80 -44 102 -10 22 -96 218
-190 435 -95 217 -180 413 -190 435 -10 22 -38 87 -63 145 -66 155 -212 490
-235 541 -11 24 -40 91 -65 149 -64 149 -121 280 -322 740 -97 223 -179 412
-182 421 -3 9 4 36 15 60 11 24 38 85 60 134 22 50 53 119 69 155 16 36 46
101 66 145 20 44 49 109 65 145 16 36 168 373 337 750 169 377 315 703 325
725 10 22 53 117 95 210 42 94 123 274 180 400 56 127 114 255 128 285 14 30
64 143 112 250 48 107 95 213 105 235 10 22 38 85 63 140 25 55 58 129 75 165
48 107 83 183 97 215 15 35 31 70 132 295 41 91 79 175 83 187 6 14 -167 -96
-518 -330 -290 -194 -531 -356 -537 -360 -5 -5 -96 -65 -201 -135 -106 -70
-453 -302 -773 -517 -320 -214 -590 -395 -599 -400 -9 -6 -262 -174 -562 -375
-300 -200 -652 -435 -783 -523 -130 -87 -242 -155 -247 -152 -6 3 -38 43 -72
88 -35 45 -68 89 -75 97 -6 8 -69 89 -138 180 -70 91 -134 174 -143 185 -9 11
-37 47 -62 80 -25 33 -47 62 -50 65 -3 3 -25 32 -50 65 -25 33 -83 110 -131
170 -91 117 -1392 1806 -1544 2004 -49 65 -102 133 -117 152 -26 33 -396 513
-708 919 -85 111 -235 306 -333 433 -99 128 -209 271 -245 319 -37 48 -69 87
-72 87 -3 0 -108 -135 -235 -300z m257 -701 c27 -36 444 -577 488 -633 31 -41
442 -574 523 -679 12 -16 72 -93 132 -171 709 -920 828 -1074 958 -1245 39
-52 80 -104 89 -115 9 -11 126 -162 260 -336 134 -174 253 -329 265 -345 111
-144 452 -587 641 -832 150 -194 238 -300 245 -295 13 7 1075 717 1951 1304
307 206 565 379 574 384 8 6 105 70 214 143 108 72 200 132 203 132 6 0 -5
-28 -43 -110 -40 -87 -50 -110 -202 -450 -73 -162 -142 -317 -155 -345 -13
-27 -62 -138 -110 -245 -92 -206 -121 -270 -162 -360 -14 -30 -80 -179 -148
-330 -68 -151 -137 -306 -155 -345 -17 -38 -40 -88 -49 -110 -10 -22 -42 -92
-71 -157 l-53 -116 -186 -47 c-102 -26 -193 -48 -201 -50 -8 -2 -53 -13 -100
-25 -47 -12 -92 -23 -100 -25 -8 -2 -249 -63 -535 -135 -286 -72 -527 -133
-535 -135 -8 -2 -152 -38 -320 -80 -168 -42 -312 -78 -320 -80 -8 -2 -62 -16
-120 -30 -58 -15 -109 -28 -115 -29 -5 -1 -19 -5 -30 -9 -11 -3 -31 -8 -45
-11 -14 -2 -151 -37 -305 -76 -154 -39 -290 -74 -302 -76 -12 -2 -34 -9 -48
-14 -14 -5 -25 -8 -25 -5 0 2 -15 -1 -32 -6 -18 -6 -40 -12 -48 -14 -8 -1 -35
-8 -60 -15 -25 -7 -53 -14 -63 -15 -9 -2 -45 -11 -80 -20 -34 -9 -69 -18 -77
-20 -8 -2 -170 -42 -360 -90 -190 -48 -352 -88 -360 -90 -8 -2 -80 -20 -160
-40 -80 -20 -152 -38 -160 -40 -8 -2 -176 -44 -373 -94 l-358 -90 -417 105
c-229 58 -424 107 -432 109 -8 2 -44 11 -80 20 -36 9 -72 18 -80 20 -8 2 -197
49 -420 105 -223 56 -412 103 -420 105 -8 2 -213 54 -455 115 -513 130 -474
120 -503 126 -13 3 -49 12 -80 20 -32 9 -73 19 -92 24 -19 4 -404 100 -855
214 -451 114 -828 209 -838 211 -14 3 -88 22 -157 40 -30 8 -186 46 -210 51
-14 3 -54 13 -90 23 -36 11 -115 31 -177 46 l-111 27 -60 136 c-50 113 -328
732 -376 837 -8 17 -44 98 -81 180 -124 278 -152 340 -177 395 -14 30 -74 163
-133 295 -147 329 -145 324 -171 380 -58 123 -152 340 -149 343 2 2 294 -191
650 -430 356 -238 661 -442 679 -453 17 -11 108 -71 201 -134 94 -63 253 -170
355 -238 102 -68 192 -128 200 -133 221 -153 867 -577 872 -574 7 4 139 175
479 618 132 173 308 400 317 411 4 6 105 136 223 290 531 690 601 781 612 795
14 18 123 159 193 250 28 36 212 274 408 530 197 256 377 489 400 518 22 30
75 98 116 151 41 54 111 144 155 201 131 169 386 501 453 589 23 31 52 67 63
81 11 14 57 73 102 133 45 59 84 107 87 107 3 0 13 -10 22 -22z m-4886 -5929
c131 -33 246 -62 254 -64 8 -2 269 -67 580 -145 311 -78 572 -143 580 -145 8
-2 62 -15 120 -30 58 -15 112 -28 120 -30 12 -3 597 -151 675 -172 23 -5 65
-16 150 -36 52 -12 756 -188 810 -203 11 -2 297 -75 635 -160 338 -86 617
-158 619 -160 6 -5 5 -3153 -1 -3159 -2 -3 -758 246 -1679 553 l-1674 558 -32
65 c-17 35 -82 177 -143 314 -62 138 -123 275 -137 305 -14 30 -83 186 -155
345 -71 160 -149 332 -174 383 -24 51 -44 97 -44 101 0 4 -11 29 -24 57 -13
27 -102 225 -199 439 -96 215 -186 415 -200 445 -14 30 -64 143 -112 250 -48
107 -95 214 -106 238 -10 23 -29 63 -40 90 -12 26 -36 79 -54 117 -48 104 -51
118 -27 111 10 -4 127 -34 258 -67z m10004 63 c0 -5 -34 -85 -76 -178 -97
-217 -96 -216 -137 -304 -19 -41 -49 -108 -67 -149 -17 -40 -46 -105 -65 -145
-18 -39 -47 -105 -65 -146 -18 -41 -48 -109 -67 -150 -19 -41 -82 -181 -140
-310 -282 -630 -348 -777 -396 -880 -19 -41 -41 -91 -49 -110 -19 -44 -352
-788 -384 -856 -8 -17 -20 -31 -27 -31 -7 -1 -768 -254 -1692 -562 -924 -309
-1684 -561 -1690 -561 -7 0 -10 521 -10 1583 l0 1584 195 48 c107 27 200 50
205 51 6 1 316 79 690 174 814 206 1544 390 1565 394 8 2 323 81 700 176 681
171 751 189 780 195 8 2 53 13 100 25 47 12 93 24 103 26 9 2 25 6 35 8 9 2
80 20 157 40 77 20 151 39 165 41 14 3 54 14 90 24 79 23 80 23 80 13z
m-10781 -344 c8 -18 24 -55 37 -83 12 -27 52 -117 89 -200 37 -82 78 -174 91
-202 13 -29 35 -77 48 -105 13 -29 63 -141 111 -248 48 -107 95 -213 105 -235
10 -22 70 -157 135 -300 64 -143 125 -278 135 -300 51 -112 80 -177 80 -180 0
-2 15 -36 34 -77 46 -100 78 -171 146 -323 32 -71 72 -161 90 -200 18 -38 49
-108 70 -155 21 -47 49 -110 63 -140 13 -30 34 -75 45 -100 11 -25 43 -97 72
-160 29 -63 56 -125 60 -136 7 -16 -4 -48 -46 -134 -30 -61 -54 -113 -54 -115
0 -2 -34 -74 -75 -160 -41 -87 -75 -159 -75 -161 0 -2 -26 -59 -59 -126 -32
-68 -69 -145 -81 -173 -21 -46 -41 -88 -148 -315 -22 -47 -55 -119 -75 -160
-19 -41 -48 -104 -65 -140 -17 -36 -56 -119 -87 -185 -31 -66 -68 -145 -82
-175 -14 -30 -45 -98 -70 -150 -25 -52 -72 -153 -105 -225 -34 -71 -89 -190
-124 -264 -35 -73 -64 -135 -64 -137 0 -1 -26 -58 -59 -126 -32 -68 -70 -148
-84 -178 -13 -30 -47 -102 -74 -160 -28 -58 -63 -132 -78 -165 -16 -33 -48
-103 -73 -155 -24 -52 -57 -122 -72 -155 -42 -92 -188 -401 -225 -480 -18 -38
-65 -137 -103 -220 -38 -82 -91 -195 -117 -250 -92 -195 -99 -210 -100 -215 0
-3 -6 -14 -12 -25 -6 -11 -40 -83 -76 -160 -35 -77 -81 -174 -100 -215 -19
-41 -58 -124 -86 -183 l-51 -109 -37 30 c-33 26 -239 201 -313 265 -14 12
-101 87 -195 166 -93 79 -192 163 -220 186 -27 24 -115 99 -195 167 -148 125
-291 246 -733 622 l-246 209 18 36 c10 20 38 81 61 136 23 55 51 118 61 140
10 22 92 211 182 420 173 398 269 620 292 670 8 17 58 134 113 260 114 264
337 775 357 820 8 17 53 120 100 230 48 110 93 214 100 230 8 17 53 120 100
230 48 110 93 214 100 230 17 37 23 51 185 425 73 168 141 324 151 348 45 100
60 134 117 267 62 145 290 670 322 740 10 22 61 141 115 265 53 124 105 243
115 265 10 22 48 110 85 195 37 85 73 169 81 185 7 17 61 140 119 275 59 135
115 263 124 285 10 22 42 97 72 167 30 70 56 128 59 128 3 0 11 -15 19 -32z
m11324 -15 c9 -21 43 -101 77 -178 34 -77 81 -185 105 -240 23 -55 98 -226
165 -380 67 -154 135 -309 150 -345 15 -36 37 -87 49 -115 28 -61 17 -37 223
-510 93 -214 176 -403 183 -420 7 -16 30 -68 50 -115 20 -47 42 -98 50 -115 8
-16 44 -100 81 -185 36 -85 74 -173 84 -195 10 -22 41 -94 70 -160 29 -66 60
-138 70 -160 10 -22 64 -146 120 -275 134 -309 125 -289 148 -340 11 -25 40
-93 65 -150 25 -58 137 -316 250 -575 112 -258 210 -483 217 -500 7 -16 21
-48 30 -70 152 -348 205 -470 275 -630 45 -104 179 -413 297 -685 119 -272
218 -504 222 -515 5 -17 -9 -33 -70 -85 -42 -35 -81 -68 -88 -74 -6 -6 -27
-24 -46 -40 -19 -15 -57 -47 -85 -71 -131 -112 -347 -295 -395 -335 -30 -25
-73 -61 -95 -81 -22 -19 -56 -48 -76 -65 -59 -48 -554 -468 -559 -474 -3 -3
-90 -78 -195 -166 -104 -89 -217 -184 -250 -212 -33 -29 -63 -52 -66 -52 -4 0
-19 28 -34 61 -15 34 -49 107 -75 163 -40 85 -198 423 -300 641 -15 33 -47
101 -70 150 -23 50 -57 122 -75 160 -18 39 -58 123 -89 189 -31 65 -56 119
-56 121 0 1 -34 74 -76 161 -41 88 -84 177 -94 199 -10 22 -43 93 -74 158 -31
65 -56 120 -56 122 0 1 -30 65 -66 141 -76 160 -125 263 -164 349 -15 33 -45
98 -68 145 -57 121 -324 689 -387 825 -18 39 -48 104 -68 145 -35 74 -75 161
-137 295 -18 39 -61 130 -96 203 -35 74 -64 135 -64 137 0 2 -25 57 -56 122
-31 65 -87 183 -124 263 -37 80 -93 198 -124 264 -31 65 -56 119 -56 121 0 2
-24 54 -54 115 l-54 112 18 42 c20 48 140 316 177 396 14 30 55 120 90 200 36
80 81 178 99 218 19 41 34 75 34 77 0 3 14 35 31 72 17 38 72 158 121 268 50
110 121 270 160 355 97 215 149 332 220 490 11 25 31 70 45 100 14 30 63 141
110 245 47 105 95 213 108 240 12 28 36 79 52 115 17 36 61 134 98 218 37 83
71 152 75 152 4 0 15 -17 23 -37z m-7566 -4040 l1883 -627 1885 628 c1037 346
1887 627 1889 625 3 -3 204 -432 321 -684 18 -38 70 -149 115 -245 45 -96 94
-200 107 -230 14 -30 50 -107 80 -170 31 -63 83 -176 118 -250 35 -74 81 -173
103 -220 21 -47 72 -154 111 -239 40 -84 88 -188 108 -230 19 -42 50 -107 68
-146 18 -38 52 -110 75 -160 91 -193 248 -527 373 -795 16 -36 58 -125 93
-199 35 -73 64 -135 64 -137 0 -1 27 -60 61 -131 34 -70 74 -155 89 -188 15
-33 47 -100 70 -150 23 -49 55 -117 70 -150 15 -33 51 -109 80 -170 29 -60 96
-204 150 -320 54 -115 115 -246 135 -290 21 -44 80 -170 131 -279 l94 -199
-45 -71 c-24 -39 -78 -123 -119 -186 -41 -63 -103 -159 -138 -213 -35 -54 -80
-124 -100 -155 -20 -31 -55 -86 -78 -122 -23 -36 -62 -98 -88 -137 -26 -40
-92 -143 -147 -228 -163 -253 -183 -283 -360 -557 -93 -145 -239 -371 -324
-503 -85 -132 -182 -283 -216 -335 -34 -52 -104 -160 -155 -240 -51 -80 -121
-188 -155 -240 -33 -52 -92 -142 -129 -200 -37 -58 -95 -148 -129 -200 -34
-52 -167 -260 -297 -461 -130 -201 -245 -377 -255 -392 l-20 -28 -270 366
c-149 202 -279 379 -290 395 -22 31 -204 279 -218 295 -6 8 -239 324 -305 414
-9 13 -142 193 -294 400 -153 207 -286 387 -295 400 -10 13 -98 132 -196 265
-98 132 -184 250 -192 261 -43 59 -157 212 -169 227 -40 46 -39 49 52 144 48
50 155 162 237 249 83 87 168 177 190 200 22 23 68 72 102 109 35 36 70 66 79
66 9 0 73 -14 143 -31 69 -17 137 -33 151 -35 14 -3 52 -12 85 -21 33 -8 67
-16 75 -18 19 -4 336 -81 415 -101 33 -8 100 -24 148 -35 l88 -19 102 81 c56
45 120 96 141 113 22 17 56 45 76 61 20 17 54 44 75 60 21 17 257 205 524 418
267 214 501 401 520 415 30 24 82 66 132 106 9 7 114 91 233 186 119 95 215
174 213 177 -3 2 -81 26 -173 53 -93 26 -225 65 -294 85 -271 79 -398 116
-740 215 -195 56 -364 106 -375 110 -63 25 -417 120 -426 115 -10 -7 -97 -96
-184 -190 -21 -22 -76 -81 -124 -130 -270 -284 -423 -445 -457 -480 -20 -22
-103 -109 -183 -193 -80 -85 -159 -168 -176 -186 -16 -17 -105 -110 -196 -206
-234 -246 -483 -508 -592 -624 -42 -44 -256 -269 -396 -415 -23 -25 -72 -76
-108 -113 -76 -79 -82 -56 60 -248 55 -74 137 -184 182 -245 45 -60 182 -247
306 -415 123 -168 227 -309 232 -315 9 -11 580 -785 681 -924 34 -46 123 -167
199 -270 76 -102 145 -195 153 -206 8 -11 84 -114 169 -230 85 -115 214 -291
287 -390 72 -99 142 -193 155 -210 28 -37 26 -33 93 -125 30 -41 58 -79 63
-85 7 -9 262 -355 301 -410 21 -28 137 -185 309 -418 81 -109 147 -202 147
-207 0 -6 -48 -77 -107 -158 -58 -81 -118 -163 -132 -183 -14 -20 -110 -153
-213 -295 -103 -143 -298 -412 -434 -599 -546 -756 -626 -865 -632 -865 -4 0
-36 5 -72 10 -36 5 -87 12 -115 15 -27 4 -57 8 -65 10 -8 2 -42 7 -75 11 -33
3 -62 8 -65 9 -3 2 -34 6 -70 10 -35 3 -67 8 -70 10 -3 2 -34 6 -70 10 -35 3
-67 8 -70 10 -3 2 -32 6 -65 9 -33 4 -67 8 -75 11 -8 2 -37 6 -65 10 -27 3
-97 13 -155 21 -58 8 -121 17 -140 20 -19 2 -46 6 -60 9 -14 2 -47 7 -75 10
-27 4 -57 8 -65 10 -8 2 -42 7 -75 11 -33 3 -62 8 -65 9 -3 2 -37 6 -75 10
-39 4 -73 9 -76 11 -3 1 -32 6 -65 9 -32 3 -66 8 -74 10 -8 3 -33 7 -55 9 -22
3 -85 12 -140 20 -55 9 -125 18 -155 22 -30 3 -71 9 -90 13 l-35 7 -3 431 -2
431 167 121 c93 66 173 124 178 128 6 5 57 42 115 82 58 41 137 98 175 126 70
51 258 186 840 604 171 122 320 230 332 239 12 9 108 78 212 152 104 74 188
136 187 137 -2 2 -34 8 -101 18 -49 7 -161 24 -195 30 -14 2 -45 7 -70 10 -41
5 -136 19 -200 30 -14 2 -72 11 -130 20 -148 23 -147 23 -232 35 -42 6 -87 13
-99 15 -13 3 -41 7 -64 10 -22 3 -65 10 -95 15 -30 5 -75 12 -100 15 -43 6
-147 21 -200 30 -81 13 -221 35 -260 40 -25 3 -56 8 -70 10 -14 3 -41 7 -60
10 -19 3 -46 7 -60 10 -14 3 -45 7 -69 10 -23 3 -55 7 -70 10 -14 2 -57 9 -96
15 -38 5 -83 12 -100 15 -124 21 -191 30 -230 29 -22 0 -60 -3 -85 -6 -25 -4
-61 -9 -80 -12 -37 -6 -105 -17 -130 -21 -8 -2 -37 -6 -65 -9 -27 -4 -88 -13
-135 -21 -47 -8 -105 -17 -130 -20 -25 -3 -99 -15 -165 -25 -66 -10 -138 -21
-160 -25 -22 -3 -67 -10 -100 -15 -33 -5 -78 -12 -100 -15 -22 -2 -50 -7 -62
-9 -11 -3 -43 -8 -70 -11 -26 -4 -115 -17 -198 -30 -82 -13 -170 -26 -195 -30
-25 -3 -52 -8 -60 -10 -8 -2 -37 -6 -65 -10 -27 -3 -61 -7 -75 -10 -40 -7 -82
-14 -135 -20 -27 -4 -57 -8 -65 -10 -8 -2 -34 -7 -57 -10 -23 -3 -57 -8 -75
-11 -18 -2 -49 -7 -68 -10 -62 -8 -225 -36 -228 -39 -1 -1 26 -21 60 -45 35
-24 99 -70 143 -102 90 -65 349 -252 380 -273 11 -8 94 -68 185 -133 91 -65
255 -183 365 -262 110 -79 236 -170 280 -202 314 -227 753 -541 765 -548 13
-7 15 -68 16 -445 1 -239 -2 -438 -7 -440 -4 -3 -27 -7 -50 -10 -45 -5 -182
-25 -209 -30 -8 -1 -40 -6 -71 -9 -31 -4 -66 -8 -76 -10 -11 -3 -44 -7 -73
-11 -29 -4 -61 -8 -70 -10 -9 -2 -41 -6 -70 -10 -29 -4 -61 -8 -70 -10 -9 -2
-41 -6 -71 -10 -30 -3 -76 -10 -104 -15 -27 -5 -74 -12 -104 -15 -30 -4 -61
-8 -70 -10 -9 -1 -38 -6 -66 -9 -27 -4 -61 -8 -75 -11 -26 -4 -61 -9 -145 -21
-27 -3 -57 -7 -65 -9 -8 -1 -40 -6 -70 -10 -30 -4 -62 -9 -70 -10 -8 -1 -40
-6 -70 -10 -30 -4 -64 -9 -75 -11 -11 -3 -40 -7 -65 -10 -25 -3 -56 -7 -70 -9
-14 -2 -47 -7 -75 -10 -27 -3 -72 -10 -100 -15 -27 -5 -75 -12 -105 -15 -30
-3 -62 -8 -70 -10 -8 -2 -38 -7 -65 -10 l-51 -5 -36 47 c-41 55 -166 228 -188
260 -14 19 -82 113 -238 328 -31 44 -188 260 -347 480 -490 679 -614 850 -622
860 -51 63 -84 118 -79 131 5 14 289 402 636 869 53 72 229 310 390 530 162
220 335 455 385 521 49 67 155 211 235 319 80 109 188 255 240 325 52 71 102
138 110 150 8 12 51 69 95 129 44 59 103 138 131 177 95 129 566 767 828 1122
302 408 346 470 346 480 0 4 -8 14 -17 23 -10 8 -83 84 -163 168 -168 177
-184 194 -386 407 -83 87 -187 197 -230 242 -44 46 -104 110 -134 142 -30 31
-134 140 -230 241 -96 101 -209 220 -251 264 -42 44 -96 101 -120 126 -88 93
-335 353 -364 384 -16 17 -70 74 -120 126 -102 107 -285 299 -393 412 -40 42
-76 77 -80 77 -4 0 -92 -25 -197 -56 -104 -30 -197 -57 -205 -59 -8 -2 -116
-34 -240 -70 -124 -37 -234 -69 -245 -72 -11 -3 -79 -23 -151 -44 -189 -56
-444 -130 -479 -139 -101 -28 -477 -139 -481 -143 -3 -2 12 -17 32 -33 242
-193 1814 -1450 1829 -1462 11 -10 38 -31 60 -47 22 -17 46 -36 53 -43 36 -33
48 -33 214 7 90 22 231 56 313 76 83 20 186 45 230 56 44 10 89 21 100 23 11
3 76 18 145 35 141 35 153 36 172 17 7 -7 78 -82 158 -166 80 -84 171 -180
204 -214 222 -233 301 -320 298 -329 -2 -6 -40 -61 -85 -122 -78 -107 -308
-417 -429 -580 -91 -123 -278 -377 -563 -764 -143 -194 -297 -403 -343 -464
-45 -62 -138 -188 -207 -282 -69 -93 -213 -289 -321 -435 -107 -146 -221 -300
-252 -343 -52 -70 -58 -76 -70 -60 -11 16 -244 373 -337 518 -18 28 -66 102
-107 165 -40 63 -92 143 -113 178 -22 34 -77 119 -122 188 -46 68 -83 126 -83
128 0 1 -37 59 -82 129 -46 70 -108 166 -139 214 -140 218 -506 786 -553 858
-29 44 -75 116 -104 160 -28 44 -105 163 -171 265 -66 102 -139 214 -161 250
-23 36 -67 106 -100 155 -32 50 -96 149 -141 220 -46 72 -87 132 -91 133 -4 2
-8 8 -8 13 0 6 -9 22 -19 37 -22 31 -340 524 -383 593 l-28 47 58 123 c33 68
70 149 85 179 14 30 44 96 67 145 23 50 57 122 75 160 18 39 52 111 75 160 23
50 74 158 112 240 39 83 90 191 113 240 24 50 72 153 108 230 36 77 85 183
110 235 24 52 92 196 150 320 58 124 125 268 150 320 25 52 93 199 152 325 59
127 125 268 147 315 22 47 58 123 80 170 22 47 55 117 73 155 18 39 49 104 68
145 19 41 55 118 79 170 25 52 57 120 71 150 46 102 128 275 153 324 13 28 24
56 24 63 0 7 3 13 8 13 4 0 16 21 26 48 11 26 46 103 79 172 71 150 120 254
157 335 15 33 46 101 70 150 23 50 76 162 117 250 42 88 98 207 125 265 27 58
57 122 65 143 8 20 18 37 22 37 3 0 853 -282 1888 -627z m-6000 281 c-122
-282 -165 -382 -182 -419 -7 -16 -91 -208 -185 -425 -95 -217 -180 -413 -190
-435 -10 -22 -62 -141 -115 -265 -53 -124 -107 -247 -119 -275 -13 -27 -94
-215 -182 -417 -87 -202 -161 -368 -164 -368 -3 0 -7 12 -8 28 -1 15 -7 61
-13 102 -14 92 -15 100 -23 175 -4 33 -9 67 -11 75 -2 8 -7 40 -10 70 -7 58
-10 80 -20 145 -6 44 -10 70 -25 195 -6 47 -13 92 -15 100 -2 8 -7 44 -10 80
-4 36 -8 67 -10 70 -1 3 -6 37 -9 75 -4 39 -9 77 -11 85 -2 8 -6 38 -10 65 -3
28 -12 95 -20 150 -8 55 -17 123 -20 150 -4 28 -15 111 -25 185 -11 74 -22
158 -25 185 -4 28 -8 61 -10 75 -2 14 -9 63 -15 110 -6 47 -13 96 -15 110 -2
14 -6 45 -10 70 -5 41 -10 76 -20 150 -18 126 -18 140 1 141 11 0 28 2 39 4
11 2 70 11 130 20 61 8 135 20 165 25 54 9 110 17 170 25 17 2 43 6 58 9 15 3
45 8 67 11 22 3 67 10 100 15 33 5 76 11 95 14 19 2 58 8 85 12 28 3 59 8 70
10 11 3 38 7 60 10 22 2 51 7 65 9 51 8 86 14 134 20 27 3 52 8 55 10 3 1 33
6 66 10 33 3 92 12 130 19 39 6 71 11 73 10 2 -1 -39 -100 -91 -220z m15768
206 c33 -5 78 -12 100 -15 23 -3 50 -7 60 -9 11 -2 43 -7 70 -10 28 -4 75 -11
105 -16 30 -5 75 -12 100 -15 25 -3 70 -10 100 -15 30 -5 73 -12 95 -15 22 -3
67 -10 100 -15 33 -5 80 -12 105 -15 25 -3 70 -10 100 -15 58 -9 105 -16 168
-25 20 -3 51 -7 67 -10 17 -3 48 -7 70 -10 22 -4 51 -8 64 -10 13 -2 43 -7 65
-10 23 -4 50 -8 61 -10 11 -2 28 -4 38 -4 17 -1 18 -7 12 -63 -4 -35 -9 -70
-10 -79 -2 -9 -6 -40 -10 -70 -3 -30 -8 -65 -10 -79 -2 -14 -6 -45 -10 -70 -3
-25 -8 -56 -10 -70 -2 -14 -7 -49 -10 -79 -4 -30 -8 -61 -10 -70 -1 -9 -6 -41
-10 -71 -3 -30 -8 -66 -10 -80 -3 -14 -11 -79 -20 -145 -8 -66 -17 -131 -20
-145 -2 -14 -7 -50 -10 -80 -3 -30 -8 -62 -10 -70 -2 -8 -7 -44 -10 -80 -4
-36 -8 -67 -10 -70 -1 -3 -6 -36 -10 -75 -4 -38 -8 -72 -10 -75 -2 -3 -6 -34
-10 -70 -4 -36 -8 -67 -10 -70 -1 -3 -6 -36 -10 -73 -3 -37 -8 -78 -10 -89 -3
-12 -7 -44 -10 -72 -3 -28 -8 -58 -10 -66 -2 -8 -7 -40 -9 -70 -3 -30 -7 -64
-10 -75 -2 -11 -7 -45 -10 -76 -4 -31 -9 -67 -11 -80 -3 -12 -7 -45 -10 -73
-3 -28 -8 -60 -10 -71 -2 -11 -7 -40 -9 -65 -3 -25 -8 -67 -12 -95 -4 -27 -7
-56 -7 -62 -1 -29 -14 -8 -54 85 -23 53 -83 192 -134 307 -50 116 -97 224
-104 240 -7 17 -35 82 -63 145 -27 63 -67 153 -87 200 -20 47 -43 99 -50 115
-7 17 -59 136 -115 265 -56 129 -110 253 -120 275 -10 22 -61 139 -113 260
-53 121 -162 371 -242 555 -81 184 -149 341 -152 348 -6 15 11 15 92 2z m1059
-3940 c8 -21 24 -58 35 -82 11 -24 64 -146 119 -273 55 -126 183 -421 285
-655 336 -773 789 -1813 839 -1930 27 -63 66 -151 85 -195 64 -145 71 -159
116 -265 65 -153 212 -490 235 -541 11 -24 140 -321 287 -659 305 -702 408
-939 507 -1165 38 -88 105 -241 147 -340 43 -99 87 -200 98 -225 12 -25 30
-66 42 -92 11 -26 21 -52 21 -57 0 -6 -23 -12 -52 -12 -29 -1 -64 -3 -78 -4
-14 -1 -70 -5 -125 -9 -55 -4 -120 -9 -145 -11 -25 -2 -90 -6 -145 -10 -55 -4
-118 -8 -140 -10 -22 -2 -87 -6 -145 -10 -58 -4 -121 -8 -140 -10 -19 -2 -80
-6 -135 -10 -55 -4 -120 -8 -145 -10 -25 -3 -88 -7 -140 -10 -52 -4 -113 -8
-135 -10 -22 -2 -83 -6 -135 -10 -52 -3 -120 -8 -150 -10 -30 -3 -93 -7 -140
-10 -47 -3 -110 -8 -140 -10 -30 -2 -95 -7 -145 -10 -49 -3 -108 -8 -130 -10
-22 -2 -87 -6 -145 -10 -58 -3 -125 -8 -150 -10 -25 -3 -83 -7 -130 -10 -47
-3 -107 -7 -135 -10 -52 -5 -154 -12 -430 -29 -55 -4 -118 -9 -140 -11 -22 -2
-85 -7 -140 -10 -55 -4 -120 -8 -145 -10 -25 -2 -85 -7 -135 -10 -49 -3 -112
-8 -140 -10 -27 -2 -88 -7 -135 -10 -124 -8 -229 -15 -280 -20 -25 -2 -90 -7
-145 -10 -55 -3 -122 -8 -150 -10 -27 -3 -90 -7 -138 -10 -49 -3 -112 -7 -140
-10 -140 -11 -209 -16 -279 -20 -73 -4 -176 -12 -268 -20 -25 -2 -90 -6 -145
-10 -55 -3 -122 -8 -150 -10 -27 -3 -90 -7 -140 -10 -49 -3 -112 -8 -140 -10
-27 -2 -90 -7 -140 -10 -49 -3 -112 -8 -140 -10 -27 -3 -90 -7 -140 -10 -49
-3 -117 -8 -150 -10 -33 -3 -94 -7 -135 -10 -41 -3 -104 -7 -140 -10 -36 -3
-97 -7 -137 -10 l-72 -5 -85 117 c-47 65 -176 240 -286 388 -110 149 -200 273
-200 276 0 3 119 190 264 415 145 225 310 481 367 569 57 88 139 216 184 285
44 69 153 236 240 373 88 136 251 388 362 560 110 171 288 447 394 612 106
165 225 350 265 410 39 61 120 187 181 280 166 258 202 315 332 515 66 102
168 261 228 355 59 93 119 179 133 191 20 18 482 411 555 472 37 31 240 204
265 226 14 11 83 71 155 131 71 61 141 120 155 132 14 11 63 54 110 93 47 40
96 82 110 94 14 12 84 71 155 131 72 61 144 122 160 137 17 14 93 79 170 143
77 65 142 121 143 126 8 21 31 6 46 -31z m-17834 -20 c5 -5 180 -153 215 -181
11 -10 85 -73 165 -141 80 -68 219 -186 310 -263 91 -77 170 -144 176 -150 6
-5 33 -28 59 -50 27 -22 85 -71 130 -110 44 -38 134 -115 200 -170 66 -55 125
-105 130 -111 6 -6 50 -44 100 -85 49 -41 99 -82 110 -92 11 -10 58 -51 105
-90 354 -299 340 -285 446 -450 54 -83 125 -195 159 -247 34 -52 110 -169 168
-260 59 -91 111 -172 117 -180 5 -8 39 -60 74 -115 35 -55 87 -136 116 -180
28 -44 88 -137 133 -207 45 -70 116 -180 157 -243 41 -64 82 -127 90 -140 8
-14 51 -80 95 -147 43 -68 108 -168 143 -223 148 -229 185 -287 278 -430 53
-82 113 -175 133 -205 20 -30 38 -59 41 -65 3 -5 27 -44 54 -85 51 -78 120
-184 214 -330 65 -101 72 -112 287 -445 92 -143 182 -282 200 -310 18 -27 57
-88 87 -135 30 -47 94 -145 142 -218 47 -73 86 -136 86 -140 0 -7 -22 -37
-178 -247 -88 -118 -312 -422 -356 -483 l-39 -53 -56 5 c-31 3 -94 8 -141 11
-47 3 -110 8 -140 10 -30 3 -89 7 -130 10 -41 2 -111 7 -155 10 -44 3 -107 7
-140 10 -75 5 -214 15 -280 20 -27 2 -95 7 -150 10 -55 4 -115 8 -135 10 -19
2 -78 6 -130 10 -52 3 -120 8 -151 10 -31 3 -94 7 -140 10 -46 3 -109 7 -139
10 -30 2 -93 7 -140 10 -47 3 -110 8 -140 10 -30 2 -98 7 -150 10 -52 4 -111
8 -130 10 -19 2 -78 6 -130 10 -52 3 -120 8 -150 10 -30 2 -93 7 -140 10 -86
5 -161 11 -280 20 -98 8 -184 13 -300 20 -58 3 -121 8 -140 10 -19 3 -71 7
-115 10 -191 12 -321 21 -430 30 -33 2 -100 7 -150 10 -49 3 -112 8 -140 10
-48 4 -149 11 -285 20 -36 3 -99 7 -140 10 -41 3 -102 8 -135 10 -33 2 -94 7
-135 10 -41 3 -109 7 -150 10 -41 3 -102 7 -135 10 -33 2 -96 7 -140 10 -44 3
-107 7 -140 10 -33 2 -96 7 -140 10 -44 3 -109 7 -145 10 -36 3 -94 7 -130 10
-36 2 -103 7 -150 10 -47 3 -107 8 -135 10 -27 2 -90 7 -140 10 -49 3 -112 8
-140 10 -27 2 -90 6 -140 10 -49 3 -112 8 -140 10 -27 3 -97 7 -155 11 -58 3
-108 9 -113 13 -7 7 47 139 103 257 11 23 20 44 20 48 0 4 12 33 26 64 15 31
55 122 89 202 56 130 72 168 121 275 12 27 70 162 296 685 44 102 95 218 114
258 19 41 34 76 34 79 0 5 33 79 101 230 10 23 19 44 19 47 0 3 13 34 29 68
16 35 81 185 145 333 65 149 123 284 131 300 33 72 72 165 73 175 1 3 17 38
37 78 19 40 35 75 35 77 0 2 11 28 24 57 13 29 36 82 51 118 15 36 36 85 47
110 12 25 29 63 39 85 9 22 92 213 184 425 92 212 173 400 181 418 8 17 20 47
28 65 8 17 23 52 34 77 11 25 35 79 52 120 18 41 43 100 57 130 43 96 48 108
214 490 89 206 170 393 180 415 18 39 120 274 276 637 83 192 77 184 123 138z
m5876 -946 c83 -87 169 -178 190 -200 53 -57 326 -344 342 -361 17 -16 32 -11
-188 -62 -96 -23 -191 -45 -210 -51 -19 -5 -64 -16 -99 -25 l-63 -15 -191 152
c-106 84 -199 159 -207 165 -8 7 -157 126 -330 264 -173 138 -316 252 -318
254 -4 4 104 37 393 121 127 36 257 74 290 84 l60 18 90 -92 c50 -51 158 -164
241 -252z m6539 291 c88 -26 245 -71 350 -102 104 -30 195 -58 202 -61 7 -5
-14 -28 -60 -64 -40 -31 -85 -68 -102 -81 -16 -14 -149 -120 -295 -236 -146
-116 -278 -222 -295 -235 -16 -14 -86 -70 -155 -125 l-126 -99 -84 20 c-47 11
-92 21 -100 23 -102 23 -368 89 -377 94 -7 4 31 50 95 117 95 99 313 328 433
455 253 267 333 347 342 344 7 -2 84 -25 172 -50z m-3450 -6080 c75 -9 118
-16 135 -20 8 -2 42 -7 75 -11 33 -3 62 -8 65 -9 3 -2 30 -6 60 -10 30 -3 62
-8 70 -10 8 -2 35 -7 60 -10 25 -3 86 -13 135 -20 50 -8 108 -17 130 -20 22
-4 51 -8 64 -10 14 -3 75 -12 135 -20 145 -21 158 -23 163 -28 2 -3 -33 -31
-79 -63 -46 -32 -90 -64 -98 -71 -56 -45 -977 -702 -985 -703 -9 0 -143 94
-350 244 -11 8 -99 71 -195 140 -96 68 -179 129 -185 133 -5 5 -37 28 -70 51
-33 22 -100 71 -150 107 -49 36 -120 87 -157 113 -37 25 -66 47 -65 48 2 2
165 29 227 38 19 3 98 15 175 26 77 12 151 23 165 25 47 7 115 17 135 21 11 2
40 6 65 10 39 4 94 13 190 29 14 3 61 10 105 16 44 6 81 12 83 14 2 2 13 2 25
0 12 -2 45 -6 72 -10z m-11538 -350 c51 -4 116 -8 145 -10 136 -8 256 -17 288
-20 19 -2 85 -7 145 -10 61 -3 126 -8 145 -10 19 -2 82 -7 140 -10 58 -4 121
-9 140 -11 19 -1 80 -6 135 -9 55 -4 118 -8 141 -10 23 -2 88 -7 145 -10 57
-3 118 -8 134 -10 17 -2 80 -7 140 -10 61 -4 126 -8 145 -10 19 -2 80 -6 135
-10 55 -3 120 -8 145 -10 25 -2 86 -7 135 -10 50 -3 119 -8 154 -11 76 -6 141
-10 271 -19 52 -3 120 -8 150 -10 30 -2 91 -7 135 -10 44 -3 103 -8 130 -10
28 -3 93 -7 145 -10 52 -3 115 -7 140 -10 25 -2 92 -7 150 -10 57 -4 120 -8
140 -10 19 -2 80 -6 135 -9 55 -4 111 -9 125 -11 14 -2 79 -7 145 -10 66 -3
131 -7 145 -9 14 -3 75 -7 135 -11 61 -4 130 -8 155 -10 25 -2 86 -6 135 -9
50 -4 115 -9 145 -11 30 -2 93 -7 140 -10 47 -3 112 -8 145 -10 72 -6 195 -14
285 -20 64 -4 114 -8 280 -21 47 -4 103 -8 125 -9 190 -11 264 -17 290 -20 17
-2 80 -7 140 -10 61 -4 126 -8 145 -10 19 -2 85 -7 145 -10 61 -4 122 -8 137
-10 15 -2 78 -6 140 -10 133 -7 180 -13 189 -23 3 -4 84 -115 179 -247 96
-132 212 -293 259 -359 47 -65 98 -135 112 -155 14 -20 52 -73 85 -118 32 -44
161 -222 285 -395 125 -172 303 -419 397 -548 94 -129 169 -237 167 -240 -2
-3 -6 -62 -10 -131 -3 -68 -8 -153 -10 -189 -3 -36 -7 -105 -10 -155 -2 -49
-7 -121 -9 -160 -3 -38 -8 -119 -11 -180 -3 -60 -8 -135 -10 -165 -2 -30 -7
-102 -10 -160 -3 -58 -7 -127 -10 -155 -2 -27 -6 -108 -10 -180 -4 -71 -9
-143 -10 -160 -2 -16 -3 -58 -4 -93 -1 -51 -5 -67 -24 -85 -18 -18 -118 -109
-231 -212 -70 -63 -213 -193 -235 -213 -14 -13 -66 -61 -116 -105 -49 -45
-101 -93 -116 -107 -33 -31 -77 -70 -199 -180 -52 -47 -104 -94 -116 -105 -29
-27 -203 -186 -225 -206 -10 -9 -60 -54 -111 -101 -51 -47 -111 -100 -132
-119 -22 -19 -49 -43 -61 -54 -11 -11 -66 -61 -120 -111 -247 -225 -364 -331
-411 -373 -28 -25 -91 -83 -140 -128 -50 -45 -106 -96 -125 -112 l-34 -31 -44
48 c-24 26 -71 76 -105 112 -34 36 -108 117 -166 179 -58 62 -121 130 -140
151 -19 20 -78 84 -130 140 -147 159 -147 159 -249 268 -118 128 -131 141
-261 283 -115 125 -232 251 -240 259 -3 3 -37 39 -75 80 -295 319 -424 458
-450 485 -11 12 -63 68 -115 125 -52 56 -115 123 -138 149 -24 25 -81 87 -127
136 -45 50 -98 106 -116 126 -19 20 -81 87 -139 150 -58 63 -134 145 -170 183
-36 39 -74 80 -85 91 -35 38 -231 249 -256 276 -49 53 -215 233 -253 273 -21
22 -80 86 -130 140 -50 54 -96 104 -101 110 -6 6 -73 79 -149 161 -201 217
-238 256 -372 400 -66 72 -143 154 -170 184 -27 30 -60 66 -74 80 -29 31 -225
241 -267 287 -15 17 -75 82 -133 144 -58 62 -118 127 -133 144 -55 59 -123
133 -247 266 -69 74 -150 162 -180 195 -30 33 -66 72 -80 86 -14 14 -47 50
-75 80 -78 85 -267 289 -300 324 -16 18 -77 83 -135 146 -128 138 -150 162
-204 219 -54 58 -62 70 -39 66 10 -2 59 -7 110 -11z m23006 -47 c-29 -29 -67
-69 -85 -89 -49 -53 -228 -246 -263 -284 -16 -17 -75 -81 -130 -140 -55 -59
-132 -142 -171 -184 -39 -42 -83 -89 -98 -106 -36 -39 -244 -265 -487 -525
-64 -69 -128 -138 -143 -155 -16 -16 -71 -77 -124 -134 -54 -57 -108 -115
-121 -130 -35 -38 -211 -228 -246 -265 -154 -165 -263 -282 -276 -298 -14 -15
-195 -211 -249 -268 -8 -9 -60 -65 -115 -125 -55 -60 -116 -126 -135 -146 -63
-66 -133 -142 -255 -274 -66 -71 -124 -135 -130 -141 -5 -6 -55 -59 -110 -119
-55 -59 -117 -126 -139 -149 -21 -22 -80 -85 -130 -140 -50 -54 -102 -110
-116 -125 -14 -15 -77 -83 -140 -151 -99 -108 -185 -200 -240 -260 -8 -9 -64
-69 -125 -134 -60 -66 -123 -133 -139 -150 -15 -17 -58 -62 -94 -101 -83 -89
-118 -128 -282 -305 -73 -80 -141 -152 -149 -161 -9 -9 -58 -62 -110 -118
-132 -143 -143 -154 -266 -286 -60 -65 -118 -127 -128 -139 -10 -12 -65 -70
-121 -131 -57 -60 -114 -122 -127 -136 -13 -15 -69 -75 -124 -134 -55 -59
-111 -120 -125 -135 -14 -15 -71 -76 -126 -136 -56 -60 -123 -133 -149 -161
-26 -29 -50 -53 -54 -53 -3 0 -33 26 -67 58 -33 31 -103 95 -155 142 -51 47
-121 110 -154 140 -32 30 -64 60 -71 65 -52 47 -204 185 -225 205 -14 14 -64
59 -110 100 -46 41 -93 84 -105 95 -11 11 -38 36 -60 55 -47 42 -257 233 -264
240 -10 10 -127 117 -214 195 -49 44 -99 89 -110 100 -12 11 -64 58 -116 105
-52 47 -99 90 -105 96 -5 5 -55 50 -110 100 -55 49 -111 100 -126 114 -28 27
-177 162 -212 193 -102 88 -185 172 -185 186 1 16 -9 191 -17 306 -4 56 -10
155 -20 335 -7 126 -16 273 -20 320 -2 25 -7 101 -10 170 -4 69 -8 145 -10
170 -2 25 -7 105 -10 179 -4 74 -8 142 -10 152 -2 10 -5 50 -6 89 l-2 72 109
150 c60 83 123 170 139 193 17 24 75 105 130 180 55 76 114 157 130 181 41 57
740 1023 835 1152 41 57 82 113 90 126 8 12 24 34 36 49 24 30 23 30 364 52
47 3 110 8 140 10 85 7 188 15 265 20 127 8 239 16 290 20 28 2 91 7 140 10
50 3 113 7 140 10 28 2 95 7 150 10 55 3 116 8 135 10 19 2 82 7 140 10 58 3
121 8 140 10 19 2 82 7 140 10 58 4 125 8 150 10 42 4 99 8 285 20 39 3 97 7
130 10 33 3 96 7 140 10 44 3 105 7 135 10 30 2 96 7 145 10 50 3 113 8 140
10 28 3 91 7 140 11 147 9 327 22 425 29 161 12 200 15 280 20 47 3 108 8 135
10 57 4 218 16 285 20 64 4 237 17 285 21 22 1 83 6 135 9 52 3 118 8 145 10
66 5 170 13 275 20 47 3 110 8 140 10 62 5 177 13 295 20 44 3 103 7 130 10
28 2 91 7 140 10 50 3 110 8 135 10 25 2 90 7 145 10 55 4 123 8 150 10 28 3
91 7 140 10 50 3 108 8 130 10 22 3 92 7 155 11 63 3 116 7 117 8 1 1 35 3 75
4 l72 3 -51 -53z m-11846 -3968 c0 -1066 -3 -1460 -11 -1460 -7 0 -20 6 -31
13 -11 8 -141 76 -290 152 -148 76 -337 172 -420 215 -82 43 -233 120 -335
172 -102 53 -255 132 -340 176 -224 115 -441 226 -636 327 -170 87 -172 87
-169 119 3 30 12 172 20 321 2 39 7 111 10 160 3 50 8 126 10 170 3 44 7 112
10 150 2 39 7 122 11 185 3 63 7 140 9 170 2 30 7 107 11 170 3 63 7 116 8
117 0 0 25 4 55 8 30 4 62 8 71 10 9 2 41 6 71 10 30 3 65 8 79 10 31 6 62 10
165 25 44 6 91 13 105 15 14 2 45 7 70 10 25 3 56 8 70 10 14 2 45 6 70 10 25
3 56 8 70 10 14 2 45 7 70 10 25 4 56 8 70 10 63 9 117 17 141 21 15 2 47 6
70 9 24 3 55 7 69 10 14 2 45 7 70 10 25 4 56 8 70 10 14 2 45 7 70 10 25 3
56 8 70 10 14 2 45 6 70 10 50 6 117 16 141 20 9 2 38 6 65 10 27 3 103 14
169 24 66 10 132 19 146 20 l26 1 0 -1460z m738 1444 c17 -2 41 -7 55 -9 14
-3 45 -7 70 -10 54 -6 102 -13 240 -34 36 -6 88 -13 116 -16 28 -3 60 -7 73
-10 12 -2 74 -11 139 -20 64 -9 128 -18 142 -20 14 -2 41 -6 60 -9 81 -11 197
-28 220 -31 22 -4 193 -29 275 -40 17 -2 64 -9 105 -15 41 -6 93 -14 115 -16
22 -3 51 -7 65 -9 14 -3 61 -9 105 -15 44 -6 91 -13 105 -15 14 -2 45 -7 70
-10 25 -4 48 -10 51 -13 4 -4 10 -61 14 -127 4 -66 9 -145 11 -175 2 -30 5
-98 8 -150 3 -52 8 -131 11 -175 3 -44 8 -120 10 -170 21 -360 35 -579 40
-627 5 -49 35 -30 -430 -268 -241 -123 -406 -208 -740 -380 -490 -252 -724
-373 -936 -481 l-129 -66 0 1464 0 1465 53 -7 c28 -4 66 -9 82 -11z m-3200
-2314 c6 -4 118 -63 250 -130 278 -142 523 -268 750 -385 88 -45 255 -131 370
-190 116 -59 251 -129 300 -155 50 -26 212 -109 360 -185 149 -76 306 -157
350 -180 44 -23 149 -77 233 -120 l153 -77 132 67 c73 37 186 96 252 130 124
64 369 190 700 360 263 135 532 273 710 365 83 43 236 121 340 175 105 54 262
135 350 180 88 46 195 101 238 123 l79 40 33 -32 c18 -17 72 -67 121 -111 48
-44 95 -87 104 -95 9 -8 85 -78 170 -155 85 -76 162 -146 171 -155 17 -16 169
-153 203 -183 12 -10 46 -42 76 -70 30 -29 98 -90 150 -137 52 -47 101 -92
110 -100 9 -8 59 -53 110 -100 52 -47 105 -96 119 -109 14 -12 62 -55 105 -95
44 -39 91 -82 106 -96 15 -14 70 -63 121 -110 115 -104 212 -193 219 -200 3
-3 50 -45 105 -95 55 -49 107 -96 116 -105 8 -8 50 -46 92 -84 42 -38 77 -73
77 -77 0 -4 -12 -20 -27 -37 -16 -16 -52 -56 -82 -88 -51 -55 -197 -213 -337
-363 -34 -36 -72 -78 -85 -92 -24 -26 -192 -208 -258 -278 -18 -20 -74 -80
-125 -135 -50 -54 -107 -115 -126 -136 -39 -42 -204 -219 -246 -265 -15 -16
-75 -82 -134 -145 -59 -63 -120 -128 -134 -145 -15 -16 -51 -55 -79 -85 -29
-31 -106 -114 -173 -185 -66 -72 -151 -164 -189 -205 -38 -41 -94 -102 -125
-135 -31 -33 -88 -94 -126 -135 -38 -41 -76 -82 -84 -91 -8 -8 -62 -67 -120
-129 -101 -110 -172 -186 -235 -254 -16 -18 -79 -86 -140 -151 -60 -66 -140
-151 -176 -190 -62 -67 -323 -348 -344 -371 -33 -37 -199 -216 -232 -250 -21
-22 -79 -85 -129 -140 -51 -54 -107 -115 -125 -135 -19 -20 -79 -84 -134 -144
-55 -59 -113 -122 -130 -140 -27 -28 -85 -91 -291 -314 -32 -35 -75 -81 -94
-101 -19 -21 -78 -84 -130 -141 -52 -57 -127 -137 -166 -179 -39 -41 -84 -88
-99 -105 -161 -175 -203 -221 -218 -236 -18 -16 -24 -11 -149 125 -72 77 -139
148 -147 157 -9 9 -55 58 -102 110 -48 52 -102 110 -120 130 -36 38 -218 234
-309 333 -30 32 -72 78 -93 100 -22 23 -74 79 -117 126 -43 47 -95 103 -117
126 -21 22 -81 87 -133 143 -52 57 -111 120 -130 141 -19 20 -78 84 -130 140
-52 57 -111 120 -131 141 -19 21 -82 89 -140 151 -57 62 -135 147 -174 188
-38 42 -124 134 -190 205 -149 161 -224 242 -250 269 -17 18 -108 117 -255
276 -14 15 -72 78 -130 140 -58 62 -113 122 -123 134 -10 12 -44 48 -75 81
-78 83 -282 302 -311 334 -13 14 -49 53 -80 87 -215 231 -284 306 -342 368
-36 39 -89 96 -117 126 -28 30 -68 73 -89 96 -21 22 -79 85 -130 140 -100 109
-116 126 -218 235 -38 41 -115 124 -170 183 -55 60 -111 121 -125 136 -14 15
-63 68 -110 119 -47 51 -107 116 -135 146 -27 29 -95 102 -150 161 -55 60
-110 119 -122 131 l-22 23 52 48 c46 43 223 205 486 442 46 41 100 91 120 110
21 19 73 67 116 105 43 39 83 75 89 80 6 6 43 39 81 74 39 36 115 105 170 155
54 50 122 111 150 136 27 25 59 54 70 65 12 11 61 56 110 100 50 44 102 91
116 105 15 14 44 41 65 60 22 19 113 102 204 185 91 82 183 166 204 185 51 46
144 131 220 201 57 54 72 60 101 39z"/>
</g>
</svg>
